<svg width="242" height="64" viewBox="0 0 242 64" fill="none" xmlns="http://www.w3.org/2000/svg">
<g clip-path="url(#clip0_229_2280)">
<path d="M93.2478 19.6934V44.3098H87.6208V34.5279H79.8853V44.3047H74.2583V19.6934H79.8853V29.1249H87.6208V19.6934H93.2478Z" fill="#EB2027"/>
<path d="M112.936 38.8934V44.3098H97.4629V19.6934H112.759V25.1098H103.09V29.1889H111.88V34.5279H103.09V38.8883L112.936 38.8934Z" fill="#EB2027"/>
<path d="M130.516 38.8934V44.3098H116.097V19.6934H121.724V38.8934H130.516Z" fill="#EB2027"/>
<path d="M150.908 28.1274C150.906 29.2499 150.68 30.3607 150.244 31.395C149.808 32.4294 149.171 33.3667 148.369 34.1522C147.567 34.9377 146.617 35.5558 145.574 35.9704C144.531 36.3849 143.416 36.5877 142.293 36.567H138.602V44.3042H132.975V19.6929H142.293C143.415 19.6721 144.53 19.8747 145.573 20.289C146.616 20.7033 147.565 21.3209 148.367 22.1058C149.169 22.8908 149.807 23.8275 150.243 24.8613C150.679 25.8951 150.905 27.0053 150.908 28.1274ZM145.283 28.1274C145.304 27.721 145.242 27.3146 145.102 26.9327C144.961 26.5508 144.744 26.2014 144.465 25.9056C144.186 25.6098 143.849 25.3738 143.476 25.2117C143.103 25.0496 142.7 24.9649 142.293 24.9627H138.602V31.2937H142.293C142.7 31.2915 143.103 31.2068 143.476 31.0446C143.85 30.8824 144.186 30.6462 144.466 30.3502C144.745 30.0542 144.962 29.7046 145.102 29.3226C145.243 28.9405 145.304 28.5339 145.283 28.1274Z" fill="#EB2027"/>
<path d="M179.117 31.9997C179.169 33.6006 178.898 35.1957 178.32 36.6896C177.742 38.1835 176.869 39.5455 175.753 40.6944C174.637 41.8433 173.301 42.7554 171.824 43.3763C170.348 43.9971 168.761 44.314 167.159 44.3079H157.315V19.6915H167.159C168.761 19.6854 170.348 20.0023 171.824 20.6231C173.301 21.244 174.637 22.1561 175.753 23.305C176.869 24.4539 177.742 25.8159 178.32 27.3098C178.898 28.8037 179.169 30.3988 179.117 31.9997ZM173.702 31.9997C173.781 31.1046 173.669 30.2029 173.373 29.3545C173.078 28.506 172.605 27.7301 171.986 27.0784C171.367 26.4267 170.617 25.9139 169.785 25.5742C168.953 25.2345 168.059 25.0755 167.161 25.1079H162.942V38.8915H167.161C168.059 38.9239 168.953 38.7649 169.785 38.4252C170.617 38.0855 171.367 37.5727 171.986 36.921C172.605 36.2693 173.078 35.4934 173.373 34.6449C173.669 33.7965 173.781 32.8948 173.702 31.9997Z" fill="#4F4C4D"/>
<path d="M197.751 38.8914V44.3078H182.28V19.6914H197.576V25.1078H187.905V29.187H196.697V34.5259H187.905V38.8863L197.751 38.8914Z" fill="#4F4C4D"/>
<path d="M199.683 38.7165L204.535 35.9039C204.911 36.9557 205.619 37.8569 206.551 38.4719C207.483 39.087 208.59 39.3826 209.705 39.3145C212.378 39.3145 213.045 38.2584 213.045 37.3102C213.045 35.7944 211.639 35.1999 207.947 34.181C204.289 33.1603 200.705 31.402 200.705 26.6896C200.705 21.9435 204.713 19.1999 208.968 19.1999C210.849 19.1355 212.707 19.6288 214.309 20.6177C215.911 21.6066 217.184 23.047 217.97 24.7578L213.222 27.5368C212.91 26.6695 212.329 25.9248 211.564 25.412C210.798 24.8991 209.888 24.6451 208.968 24.6871C207.209 24.6871 206.33 25.5662 206.33 26.5515C206.33 27.6765 206.928 28.4496 210.761 29.6117C214.489 30.7368 218.677 32.037 218.677 37.2412C218.677 41.989 214.879 44.8016 209.534 44.8016C204.36 44.7999 201.054 42.3393 199.683 38.7165Z" fill="#4F4C4D"/>
<path d="M234.809 44.3078L226.934 32.9141V44.3078H221.309V19.6914H226.936V30.3828L234.461 19.6914H240.861L232.563 31.683L241.213 44.3146L234.809 44.3078Z" fill="#4F4C4D"/>
<path d="M57.2547 24.21C57.0554 17.7283 54.3405 11.5788 49.6851 7.06444C45.0297 2.55004 38.7997 0.0253906 32.3149 0.0253906C25.8302 0.0253906 19.6002 2.55004 14.9448 7.06444C10.2894 11.5788 7.57448 17.7283 7.37516 24.21C2.65937 25.234 0 29.4783 0 36.2016C0 43.9759 3.54864 48.434 9.73642 48.434C10.3958 48.4341 11.0284 48.1732 11.496 47.7083C11.9637 47.2435 12.2284 46.6125 12.2324 45.9532L12.2644 24.978C12.3169 19.6928 14.4437 14.6396 18.1867 10.9077C21.9296 7.17574 26.9889 5.06375 32.2744 5.02686C37.5598 4.98996 42.6481 7.03112 46.4428 10.7105C50.2374 14.3898 52.4346 19.4127 52.5608 24.6968L52.5507 47.1844C52.5507 52.6564 47.2691 55.5801 36.8589 55.8917C36.2375 54.879 35.2951 54.1033 34.1818 53.6881C33.0685 53.2728 31.8483 53.242 30.7154 53.6004C29.5826 53.9588 28.6022 54.6859 27.9303 55.666C27.2585 56.646 26.9338 57.8226 27.008 59.0085C27.0822 60.1944 27.5509 61.3214 28.3396 62.2101C29.1284 63.0988 30.1917 63.698 31.3604 63.9125C32.5291 64.127 33.7359 63.9444 34.7888 63.3937C35.8417 62.843 36.6801 61.9559 37.1705 60.8736C53.0392 60.3296 57.12 53.9279 57.5091 48.1275C62.0834 47.0109 64.6585 42.802 64.6585 36.1999C64.6585 29.4648 61.9907 25.2256 57.2547 24.21Z" fill="#4F4C4D"/>
<path fill-rule="evenodd" clip-rule="evenodd" d="M33.5283 7.29102V23.8771H49.9831C49.7444 19.5781 47.9379 15.5158 44.9055 12.4592C41.8731 9.40255 37.8253 7.5638 33.5283 7.29102Z" fill="#1F7697"/>
<path fill-rule="evenodd" clip-rule="evenodd" d="M31.298 7.29102C27.001 7.5638 22.9532 9.40255 19.9208 12.4592C16.8884 15.5158 15.0819 19.5781 14.8433 23.8771H31.298V7.29102Z" fill="#EB2027"/>
<path d="M49.9819 42.6943H31.4304C27.0314 42.6943 22.8127 40.9469 19.7022 37.8364C16.5917 34.7259 14.8442 30.5071 14.8442 26.1082L49.9819 26.1082V42.6943Z" fill="#B2B035"/>
</g>
<defs>
<clipPath id="clip0_229_2280">
<rect width="241.209" height="64" fill="white"/>
</clipPath>
</defs>
</svg>
