<svg width="40" height="40" viewBox="0 0 40 40" fill="none" xmlns="http://www.w3.org/2000/svg">
<g id="vuesax/bold/profile-2user">
<g id="profile-2user">
<path id="Vector" d="M15.0002 3.33301C10.6335 3.33301 7.0835 6.88301 7.0835 11.2497C7.0835 15.533 10.4335 18.9997 14.8002 19.1497C14.9335 19.133 15.0668 19.133 15.1668 19.1497C15.2002 19.1497 15.2168 19.1497 15.2502 19.1497C15.2668 19.1497 15.2668 19.1497 15.2835 19.1497C19.5502 18.9997 22.9002 15.533 22.9168 11.2497C22.9168 6.88301 19.3668 3.33301 15.0002 3.33301Z" fill="#FAFF00"/>
<path id="Vector_2" d="M23.4666 23.5838C18.8166 20.4838 11.2333 20.4838 6.54994 23.5838C4.43327 25.0005 3.2666 26.9171 3.2666 28.9671C3.2666 31.0171 4.43327 32.9171 6.53327 34.3171C8.8666 35.8838 11.9333 36.6671 14.9999 36.6671C18.0666 36.6671 21.1333 35.8838 23.4666 34.3171C25.5666 32.9005 26.7333 31.0005 26.7333 28.9338C26.7166 26.8838 25.5666 24.9838 23.4666 23.5838Z" fill="#FAFF00"/>
<path id="Vector_3" d="M33.3166 12.2332C33.5833 15.4665 31.2833 18.2998 28.0999 18.6832C28.0833 18.6832 28.0833 18.6832 28.0666 18.6832H28.0166C27.9166 18.6832 27.8166 18.6832 27.7333 18.7165C26.1166 18.7998 24.6333 18.2832 23.5166 17.3332C25.2333 15.7998 26.2166 13.4998 26.0166 10.9998C25.8999 9.64984 25.4333 8.41651 24.7333 7.36651C25.3666 7.04984 26.0999 6.84984 26.8499 6.78317C30.1166 6.49984 33.0333 8.93317 33.3166 12.2332Z" fill="#FAFF00"/>
<path id="Vector_4" d="M36.6502 27.6503C36.5169 29.267 35.4836 30.667 33.7502 31.617C32.0836 32.5337 29.9836 32.967 27.9002 32.917C29.1002 31.8337 29.8002 30.4837 29.9336 29.0503C30.1002 26.9837 29.1169 25.0003 27.1502 23.417C26.0336 22.5337 24.7336 21.8337 23.3169 21.317C27.0002 20.2503 31.6336 20.967 34.4836 23.267C36.0169 24.5003 36.8002 26.0503 36.6502 27.6503Z" fill="#FAFF00"/>
</g>
</g>
</svg>
